<?xml version="1.0" standalone="no"?>
<!DOCTYPE svg PUBLIC "-//W3C//DTD SVG 20010904//EN"
 "http://www.w3.org/TR/2001/REC-SVG-20010904/DTD/svg10.dtd">
<svg version="1.0" xmlns="http://www.w3.org/2000/svg"
 width="1280.000000pt" height="1135.000000pt" viewBox="0 0 1280.000000 1135.000000"
 preserveAspectRatio="xMidYMid meet">
<g transform="translate(0.000000,1135.000000) scale(0.100000,-0.100000)"
fill="#000000" stroke="none">
<path d="M3050 9256 c-1675 -1152 -3046 -2100 -3048 -2108 -2 -11 14 -12 85
-7 753 57 2565 805 4063 1677 1105 643 1799 1206 1991 1617 l31 64 29 -57
c245 -466 1280 -1183 2789 -1931 1486 -737 2961 -1277 3660 -1341 149 -13 152
-13 148 5 -2 8 -136 97 -298 198 -162 101 -1663 1034 -3335 2074 -1672 1041
-3047 1894 -3055 1897 -9 3 -1238 -835 -3060 -2088z"/>
<path d="M7572 7814 c-44 -19 -190 -34 -343 -34 -234 0 -448 -33 -525 -81 -97
-59 -77 -173 34 -198 26 -6 106 -15 177 -21 320 -26 465 -72 642 -207 82 -62
120 -110 186 -235 69 -132 108 -186 238 -330 66 -72 154 -184 196 -247 130
-195 225 -271 493 -392 266 -120 413 -146 745 -133 116 5 302 8 415 8 236 -1
307 -15 445 -84 91 -45 178 -107 170 -119 -3 -5 -58 -40 -122 -77 -935 -543
-2085 -1354 -2848 -2009 -530 -454 -933 -896 -1046 -1145 -12 -27 -25 -50 -28
-50 -4 0 -14 21 -23 47 -49 136 -189 316 -447 573 -244 244 -456 424 -806 687
-862 646 -1966 1317 -3055 1857 -884 438 -1556 683 -1952 713 -46 3 -81 3 -78
0 3 -3 628 -474 1390 -1047 l1385 -1042 8 -56 c10 -74 0 -368 -19 -552 -28
-275 -88 -582 -165 -848 -43 -145 -56 -174 -166 -369 -47 -82 -73 -139 -69
-149 5 -14 18 -15 99 -8 311 26 575 -32 934 -206 250 -121 479 -262 743 -458
63 -47 192 -140 285 -206 260 -183 524 -379 711 -526 330 -261 430 -337 508
-390 96 -64 284 -158 466 -233 238 -98 643 -248 657 -243 7 3 13 18 13 33 0
41 -216 249 -574 553 -828 704 -999 855 -1311 1160 -461 450 -719 629 -1083
750 -174 58 -521 120 -673 120 -20 0 -38 3 -42 6 -3 4 5 28 18 55 106 207 239
646 288 941 l22 137 1434 -1080 c1254 -943 1436 -1077 1450 -1065 9 7 648 514
1421 1126 773 613 1447 1147 1499 1188 l94 75 -6 -234 c-3 -129 -15 -337 -26
-464 -11 -126 -22 -275 -23 -330 l-3 -99 -120 -18 c-162 -24 -264 -52 -363
-98 -240 -113 -446 -332 -684 -730 -141 -235 -430 -798 -563 -1095 -131 -292
-222 -521 -265 -661 -21 -72 -24 -165 -5 -170 6 -2 43 44 84 101 224 317 454
567 1361 1480 432 434 861 873 953 975 155 170 168 187 163 215 -23 115 -61
351 -81 510 -32 248 -57 826 -38 895 8 31 72 85 529 447 407 322 520 408 525
395 4 -10 15 -71 25 -137 20 -129 24 -387 14 -1040 -5 -274 -3 -303 13 -332
22 -42 60 -67 87 -58 96 30 197 419 240 920 6 66 14 235 19 375 8 212 14 278
36 390 15 74 30 167 34 207 l6 72 708 561 c390 309 706 564 704 567 -3 2 -56
0 -118 -6 -326 -31 -819 -214 -1463 -544 l-222 -114 -60 41 c-146 103 -301
183 -494 256 -146 56 -275 93 -650 190 -355 91 -513 139 -685 207 -353 140
-664 336 -815 515 -35 43 -84 120 -125 201 -37 73 -85 156 -107 185 -43 58
-294 253 -325 251 -10 0 -33 -7 -51 -15z"/>
<path d="M5686 7565 c-110 -39 -187 -208 -173 -378 19 -224 164 -391 392 -453
42 -11 123 -18 267 -21 200 -5 207 -5 234 16 15 11 41 21 59 21 60 0 117 75
100 132 -20 65 -82 85 -161 52 -27 -11 -60 -15 -113 -12 -100 4 -172 40 -250
124 -72 76 -95 124 -121 245 -39 178 -69 248 -120 274 -35 18 -63 18 -114 0z"/>
<path d="M10870 3302 c0 -4 16 -26 36 -47 70 -77 168 -309 260 -614 l37 -124
-27 -191 c-38 -267 -59 -366 -122 -559 -101 -313 -127 -447 -127 -662 1 -150
16 -247 59 -369 81 -232 264 -431 510 -554 59 -30 173 -72 193 -72 6 0 -9 39
-33 88 -110 223 -191 494 -232 777 -21 146 -24 484 -5 625 30 221 52 295 142
475 68 134 77 197 60 397 -14 179 -33 285 -67 380 -90 248 -287 411 -544 448
-80 12 -140 13 -140 2z"/>
<path d="M10440 3175 c-90 -18 -204 -59 -270 -98 -30 -17 -89 -66 -131 -107
-118 -117 -165 -228 -194 -465 -18 -142 -19 -284 -4 -357 6 -29 38 -105 69
-168 106 -210 134 -351 135 -685 0 -188 -3 -245 -19 -315 -58 -268 -169 -496
-334 -687 l-69 -79 66 8 c159 21 341 87 469 171 265 172 390 450 361 804 -12
149 -37 262 -109 481 -32 100 -68 224 -79 275 -21 96 -71 443 -71 490 0 36 54
202 101 312 104 238 224 368 371 399 19 4 26 11 22 21 -5 12 -29 15 -128 14
-66 0 -150 -7 -186 -14z"/>
</g>
</svg>
