<?xml version="1.0" encoding="UTF-8"?>
<!DOCTYPE svg PUBLIC "-//W3C//DTD SVG 1.1//EN" "http://www.w3.org/Graphics/SVG/1.1/DTD/svg11.dtd">
<!-- Creator: CorelDRAW X8 -->
<svg xmlns="http://www.w3.org/2000/svg" xml:space="preserve" width="200px" height="200px" version="1.1" style="shape-rendering:geometricPrecision; text-rendering:geometricPrecision; image-rendering:optimizeQuality; fill-rule:evenodd; clip-rule:evenodd"
viewBox="0 0 200000 200000"
 xmlns:xlink="http://www.w3.org/1999/xlink">
 <defs>
  <style type="text/css">
   <![CDATA[
    .fil0 {fill:#282826;fill-rule:nonzero}
   ]]>
  </style>
 </defs>
 <g id="Слой_x0020_1">
  <metadata id="CorelCorpID_0Corel-Layer"/>
  <path class="fil0" d="M99359 28814c-39705,0 -72001,32296 -72001,71996 0,39704 32296,72001 72001,72001 39700,0 72000,-32297 72000,-72001 0,-39700 -32300,-71996 -72000,-71996zm0 151289c-43725,0 -79292,-35567 -79292,-79293 0,-43721 35567,-79288 79292,-79288 43721,0 79292,35567 79292,79288 0,43726 -35571,79293 -79292,79293z"/>
  <path class="fil0" d="M99359 60048c-22479,0 -40771,18287 -40771,40762 0,22479 18292,40771 40771,40771 22475,0 40767,-18292 40767,-40771 0,-22475 -18292,-40762 -40767,-40762zm0 85700c-24780,0 -44938,-20158 -44938,-44938 0,-24775 20158,-44929 44938,-44929 24775,0 44934,20154 44934,44929 0,24780 -20159,44938 -44934,44938z"/>
  <path class="fil0" d="M99359 79052c-12000,0 -21762,9763 -21762,21758 0,12000 9762,21763 21762,21763 11996,0 21758,-9763 21758,-21763 0,-11995 -9762,-21758 -21758,-21758z"/>
  <polygon class="fil0" points="150356,104831 196236,104831 196236,97540 150356,97540 "/>
  <polygon class="fil0" points="2000,104831 47882,104831 47882,97540 2000,97540 "/>
  <polygon class="fil0" points="95472,198298 102763,198298 102763,152422 95472,152422 "/>
  <polygon class="fil0" points="95472,49947 102763,49947 102763,4067 95472,4067 "/>
 </g>
</svg>
